<?xml version="1.0" standalone="no"?>
<!DOCTYPE svg PUBLIC "-//W3C//DTD SVG 20010904//EN"
 "http://www.w3.org/TR/2001/REC-SVG-20010904/DTD/svg10.dtd">
<svg version="1.0" xmlns="http://www.w3.org/2000/svg"
 width="512.000000pt" height="512.000000pt" viewBox="0 0 512.000000 512.000000"
 preserveAspectRatio="xMidYMid meet">
<metadata>
Created by potrace 1.14, written by Peter Selinger 2001-2017
</metadata>
<g transform="translate(0.000000,512.000000) scale(0.100000,-0.100000)"
fill="#000000" stroke="none">
<path d="M2379 5116 c-2 -2 -34 -6 -71 -10 -188 -17 -405 -68 -607 -142 -115
-42 -355 -159 -429 -208 -30 -20 -56 -36 -58 -36 -10 0 -196 -138 -273 -204
-241 -204 -492 -506 -632 -761 -122 -222 -235 -529 -263 -716 -3 -20 -8 -42
-10 -50 -3 -8 -8 -34 -11 -59 -3 -25 -8 -74 -12 -110 -15 -129 -7 -509 12
-605 3 -11 7 -36 10 -55 42 -287 200 -710 347 -927 15 -23 28 -44 28 -48 0 -9
127 -182 191 -261 245 -300 607 -570 969 -723 168 -71 467 -153 640 -176 214
-27 578 -27 725 1 10 2 37 6 60 9 86 13 296 69 415 112 220 79 435 194 625
332 50 36 92 68 95 71 3 3 37 32 75 65 500 427 836 1073 904 1735 9 86 7 436
-3 500 -3 19 -8 53 -11 76 -110 769 -647 1513 -1375 1902 -195 104 -470 205
-643 236 -15 3 -35 7 -45 10 -9 3 -33 7 -52 10 -68 9 -125 17 -155 22 -38 6
-441 15 -446 10z m375 -171 c43 -3 82 -7 85 -9 3 -2 33 -7 66 -11 32 -3 62 -8
66 -11 4 -2 23 -6 42 -9 108 -18 362 -104 512 -175 163 -77 410 -237 540 -349
84 -73 299 -297 357 -372 178 -229 314 -480 405 -744 28 -81 79 -281 88 -340
3 -23 8 -52 10 -65 19 -97 27 -427 12 -540 -22 -175 -25 -193 -62 -340 -68
-271 -207 -558 -403 -835 -74 -103 -316 -347 -458 -459 -236 -187 -522 -354
-639 -374 -32 -5 -80 -3 -130 4 -97 15 -155 21 -260 29 -144 12 -148 15 -202
170 -100 290 -87 620 35 845 99 183 293 321 528 376 113 26 284 20 348 -12 16
-8 33 -14 38 -14 16 0 80 -48 71 -53 -11 -7 -129 0 -142 8 -23 14 -18 -16 8
-52 48 -67 115 -105 221 -128 100 -21 283 -2 303 32 11 19 -51 122 -113 184
-171 172 -457 225 -779 143 -53 -13 -98 -24 -100 -24 -13 0 129 96 259 175
266 161 382 263 545 475 108 140 206 238 307 307 86 60 128 80 87 42 -60 -56
-221 -268 -233 -306 -6 -20 -4 -22 27 -19 18 2 60 11 93 21 188 54 307 182
384 414 39 117 37 119 -81 115 -280 -11 -407 -94 -617 -406 -195 -288 -255
-343 -637 -581 -287 -178 -369 -244 -494 -391 -56 -67 -165 -231 -184 -279
-12 -27 -23 14 -21 75 2 97 14 291 19 308 2 8 7 37 10 63 3 27 15 91 26 144
78 358 255 630 544 831 143 100 463 250 512 240 11 -2 3 -18 -28 -56 -34 -43
-39 -56 -28 -63 23 -15 168 15 207 42 44 32 132 152 132 181 0 23 -68 32 -180
25 -111 -8 -159 -19 -279 -64 -188 -70 -348 -160 -496 -279 -166 -134 -284
-270 -387 -448 -66 -115 -60 -125 -58 94 4 364 21 475 95 636 53 117 108 191
238 327 66 70 82 106 55 124 -20 12 -30 11 -78 -13 -71 -36 -210 -178 -274
-282 -15 -24 -30 -41 -33 -38 -4 3 -8 66 -9 139 -1 72 -3 147 -3 165 -1 44
-29 70 -69 64 -42 -6 -50 -37 -55 -214 -2 -76 -6 -140 -9 -143 -3 -3 -35 31
-71 77 -79 100 -155 179 -211 217 -58 39 -83 44 -101 19 -19 -28 -10 -44 87
-149 208 -227 267 -362 294 -674 9 -108 11 -396 3 -401 -4 -2 -45 51 -91 118
-301 446 -900 792 -1252 725 -69 -13 -70 -18 -17 -95 85 -125 143 -157 274
-153 48 1 48 17 -3 76 -22 25 -40 49 -40 52 0 13 82 -12 169 -53 139 -65 302
-159 395 -227 100 -74 246 -219 310 -309 138 -194 217 -446 242 -763 9 -127
11 -306 3 -311 -5 -2 -16 10 -25 28 -70 137 -240 331 -390 445 -75 57 -261
183 -270 183 -11 0 -308 206 -366 254 -76 63 -151 150 -235 274 -83 120 -178
239 -235 295 -137 133 -291 184 -510 168 -31 -2 -21 -69 31 -199 61 -154 181
-272 328 -321 75 -25 163 -35 163 -18 0 15 -108 153 -198 255 -35 40 -63 75
-60 77 7 8 145 -88 211 -146 33 -29 112 -118 175 -198 124 -156 232 -269 328
-343 33 -26 148 -101 255 -168 107 -67 202 -129 212 -139 17 -17 14 -17 -55 1
-99 25 -182 33 -323 32 -222 -2 -349 -47 -464 -162 -64 -65 -131 -161 -131
-189 0 -25 74 -38 215 -38 136 0 141 1 193 29 52 29 142 115 142 136 0 8 -26
9 -91 4 -103 -8 -110 0 -31 40 90 45 143 56 262 57 210 0 422 -87 575 -236 87
-84 134 -160 174 -281 37 -111 45 -168 46 -314 0 -167 -11 -236 -62 -395 -54
-166 -53 -166 -218 -180 -44 -3 -89 -8 -100 -10 -11 -3 -45 -7 -75 -10 -30 -3
-82 -9 -114 -15 -55 -9 -65 -7 -135 21 -99 40 -320 155 -424 221 -352 226
-653 558 -836 924 -89 178 -132 293 -180 479 -28 108 -35 139 -46 220 -4 22
-8 47 -10 55 -18 63 -24 383 -12 530 10 111 12 125 41 280 31 163 102 373 186
545 299 619 887 1107 1554 1289 68 19 137 37 152 39 16 3 45 8 64 11 19 3 49
8 65 11 17 3 73 8 125 12 52 3 96 7 97 8 5 3 196 -3 277 -10z"/>
<path d="M2875 4677 c-76 -26 -186 -121 -218 -189 -18 -37 -42 -146 -34 -154
2 -2 25 23 51 56 26 33 57 65 68 71 20 11 20 10 4 -18 -23 -41 -76 -173 -76
-191 0 -12 9 -13 47 -8 129 17 222 139 229 301 5 123 -11 152 -71 132z"/>
<path d="M2203 4667 c-24 -11 -28 -29 -25 -134 3 -101 69 -219 146 -261 41
-22 107 -42 118 -36 16 10 12 25 -67 209 l-17 40 27 -25 c15 -14 43 -46 63
-72 19 -26 40 -44 45 -41 14 9 1 96 -22 140 -52 103 -208 207 -268 180z"/>
<path d="M1557 4441 c-16 -62 10 -257 45 -339 42 -97 143 -200 231 -237 56
-23 153 -44 167 -35 13 8 -46 112 -165 293 -62 94 -32 75 121 -78 68 -67 126
-120 129 -117 11 12 4 132 -11 183 -45 152 -199 287 -380 333 -86 22 -130 21
-137 -3z"/>
<path d="M3398 4435 c-211 -60 -352 -220 -359 -405 -2 -67 0 -80 14 -80 6 1
61 48 121 105 143 136 238 205 154 111 -31 -34 -190 -277 -204 -313 -14 -33
-14 -34 5 -28 11 3 28 7 38 9 108 21 220 81 281 150 72 83 118 212 126 359 6
113 3 118 -55 116 -27 -2 -81 -12 -121 -24z"/>
<path d="M2285 4057 c-42 -117 -1 -282 83 -341 45 -31 76 -35 68 -8 -17 60
-27 105 -23 109 3 2 19 -16 37 -42 17 -25 37 -44 43 -42 28 9 4 158 -34 211
-42 57 -166 138 -174 113z"/>
<path d="M2791 4049 c-49 -19 -110 -80 -136 -133 -25 -52 -37 -128 -27 -168 6
-26 15 -22 36 17 10 19 27 42 37 51 18 16 19 16 10 -12 -13 -40 -21 -110 -14
-118 8 -8 51 20 81 52 56 60 75 100 80 175 5 81 -7 141 -29 144 -8 1 -25 -2
-38 -8z"/>
<path d="M911 3939 c-24 -9 -24 -10 -18 -127 4 -86 11 -133 27 -177 46 -122
122 -210 230 -265 56 -28 155 -54 170 -45 8 5 -100 192 -162 283 -17 24 -27
46 -24 49 9 9 90 -62 178 -157 45 -49 86 -86 91 -83 5 3 7 45 5 93 -3 73 -9
98 -36 152 -65 133 -225 243 -394 272 -15 3 -31 7 -35 9 -5 3 -19 1 -32 -4z"/>
<path d="M4086 3924 c-83 -20 -184 -76 -245 -137 -64 -64 -117 -166 -126 -244
-3 -32 -8 -71 -10 -86 -6 -47 21 -44 67 9 41 45 70 74 163 159 22 20 54 44 70
52 l30 16 -21 -24 c-64 -71 -218 -324 -211 -344 15 -38 250 78 312 154 93 114
158 361 115 441 -13 24 -56 25 -144 4z"/>
<path d="M1668 3658 c-35 -27 -50 -179 -27 -277 15 -66 57 -148 95 -187 37
-37 82 -69 88 -63 5 5 -19 142 -34 199 -6 23 -9 44 -7 47 10 10 109 -180 147
-281 9 -26 13 -28 25 -15 19 19 42 131 40 195 -4 117 -142 310 -267 375 -44
23 -40 22 -60 7z"/>
<path d="M3385 3634 c-103 -53 -171 -120 -218 -214 -28 -57 -32 -75 -34 -155
-1 -69 3 -102 18 -142 11 -29 24 -53 28 -53 4 0 15 24 26 53 28 80 83 196 107
226 l21 26 -6 -35 c-3 -19 -9 -46 -12 -60 -12 -55 -17 -110 -11 -126 5 -14 11
-13 44 12 51 40 77 71 106 130 32 64 39 100 38 194 -2 86 -21 164 -42 167 -8
2 -37 -9 -65 -23z"/>
<path d="M1565 2758 c-12 -30 -11 -188 1 -245 26 -130 108 -229 239 -289 40
-19 80 -34 89 -34 18 0 27 38 31 127 8 194 -89 335 -297 431 -56 26 -57 26
-63 10z"/>
<path d="M3496 2755 c-88 -46 -224 -164 -253 -218 -23 -44 -40 -154 -37 -240
2 -89 14 -112 53 -102 42 11 138 73 201 132 48 44 62 65 79 116 27 84 32 116
36 204 5 118 -13 142 -79 108z"/>
<path d="M751 2314 c-96 -20 -271 -108 -271 -136 0 -15 118 -120 195 -173 133
-92 304 -105 505 -39 82 28 102 40 82 53 -6 4 -109 31 -227 61 -118 30 -215
58 -215 63 0 13 379 -5 403 -20 4 -2 7 1 7 7 0 6 -26 37 -57 69 -57 56 -140
105 -198 117 -61 12 -162 12 -224 -2z"/>
<path d="M4207 2319 c-59 -7 -133 -31 -178 -58 -39 -24 -106 -86 -119 -112
l-12 -22 94 6 c52 4 119 9 149 12 95 9 219 14 219 10 0 -5 -77 -27 -286 -81
-99 -25 -187 -50 -197 -56 -30 -16 -3 -35 86 -63 69 -22 97 -26 197 -24 86 1
132 6 175 21 92 31 236 135 280 201 17 26 17 29 1 46 -23 25 -149 91 -195 103
-20 5 -58 11 -86 14 -27 3 -54 6 -60 8 -5 1 -36 -1 -68 -5z"/>
<path d="M3296 1595 l-29 -12 53 -42 c29 -23 62 -48 73 -56 35 -25 12 -27 -57
-7 -37 11 -68 16 -72 11 -9 -15 44 -103 80 -131 48 -38 146 -69 222 -69 80 -1
98 11 89 60 -30 159 -233 298 -359 246z"/>
<path d="M1679 1583 c-96 -25 -172 -103 -203 -210 -13 -47 -13 -54 0 -68 32
-31 181 -16 267 27 72 36 136 123 110 149 -5 5 -24 4 -47 -2 -96 -27 -100 -17
-16 48 56 43 71 62 53 64 -56 5 -124 2 -164 -8z"/>
</g>
</svg>
